<svg version="1.1" xmlns="http://www.w3.org/2000/svg" viewBox="0 0 2659.1737640206707 2147.2332832179777" width="5318.347528041341" height="4294.466566435955">
  <!-- svg-source:excalidraw -->
  
  <defs>
    <style class="style-fonts">
      @font-face {
        font-family: "Virgil";
        src: url("https://unpkg.com/revedraw@1.0.0-alpha.10/dist/excalidraw-assets/Virgil.woff2");
      }
      @font-face {
        font-family: "Cascadia";
        src: url("https://unpkg.com/revedraw@1.0.0-alpha.10/dist/excalidraw-assets/Cascadia.woff2");
      }
    </style>
    
  </defs>
  <rect x="0" y="0" width="2659.1737640206707" height="2147.2332832179777" fill="#ffffff"></rect><g stroke-linecap="round" transform="translate(703.3884085196933 10) rotate(0 488.82239700144237 1041.725713273662)"><path d="M32 0 M32 0 C359.36 0, 686.72 0, 945.64 0 M32 0 C242.29 0, 452.58 0, 945.64 0 M945.64 0 C966.98 0, 977.64 10.67, 977.64 32 M945.64 0 C966.98 0, 977.64 10.67, 977.64 32 M977.64 32 C977.64 635.12, 977.64 1238.24, 977.64 2051.45 M977.64 32 C977.64 470.43, 977.64 908.85, 977.64 2051.45 M977.64 2051.45 C977.64 2072.78, 966.98 2083.45, 945.64 2083.45 M977.64 2051.45 C977.64 2072.78, 966.98 2083.45, 945.64 2083.45 M945.64 2083.45 C670.32 2083.45, 394.99 2083.45, 32 2083.45 M945.64 2083.45 C689.69 2083.45, 433.74 2083.45, 32 2083.45 M32 2083.45 C10.67 2083.45, 0 2072.78, 0 2051.45 M32 2083.45 C10.67 2083.45, 0 2072.78, 0 2051.45 M0 2051.45 C0 1501.06, 0 950.66, 0 32 M0 2051.45 C0 1447.89, 0 844.33, 0 32 M0 32 C0 10.67, 10.67 0, 32 0 M0 32 C0 10.67, 10.67 0, 32 0" stroke="#1e1e1e" stroke-width="4" fill="none"></path></g><g stroke-linecap="round"><g transform="translate(705.031509013816 1086.230823650234) rotate(0 489.6439472485033 0)"><path d="M0 0 C163.21 0, 816.07 0, 979.29 0 M0 0 C163.21 0, 816.07 0, 979.29 0" stroke="#1e1e1e" stroke-width="4" fill="none"></path></g></g><mask></mask><g stroke-linecap="round"><g transform="translate(703.3884085196937 747.7521218609999) rotate(0 489.6439472485033 0)"><path d="M0 0 C163.21 0, 816.07 0, 979.29 0 M0 0 C163.21 0, 816.07 0, 979.29 0" stroke="#1e1e1e" stroke-width="4" fill="none"></path></g></g><mask></mask><g stroke-linecap="round"><g transform="translate(701.7453080255709 1263.6856770154636) rotate(0 489.6439472485033 0)"><path d="M0 0 C163.21 0, 816.07 0, 979.29 0 M0 0 C163.21 0, 816.07 0, 979.29 0" stroke="#1e1e1e" stroke-width="4" fill="none"></path></g></g><mask></mask><g stroke-linecap="round"><g transform="translate(701.7453080255714 1911.0672716997265) rotate(0 489.6439472485033 0)"><path d="M0 0 C163.21 0, 816.07 0, 979.29 0 M0 0 C163.21 0, 816.07 0, 979.29 0" stroke="#1e1e1e" stroke-width="4" fill="none"></path></g></g><mask></mask><g stroke-linecap="round"><g transform="translate(698.4591070373267 1761.5451267345775) rotate(0 489.6439472485033 0)"><path d="M0 0 C163.21 0, 816.07 0, 979.29 0 M0 0 C163.21 0, 816.07 0, 979.29 0" stroke="#1e1e1e" stroke-width="4" fill="none"></path></g></g><mask></mask><g stroke-linecap="round"><g transform="translate(700.1022075314486 1263.6856770154634) rotate(0 489.6439472485033 0)"><path d="M0 0 C163.21 0, 816.07 0, 979.29 0 M0 0 C163.21 0, 816.07 0, 979.29 0" stroke="#1e1e1e" stroke-width="4" fill="none"></path></g></g><mask></mask><g stroke-linecap="round"><g transform="translate(696.8160065432039 1441.140530380693) rotate(0 489.6439472485033 0)"><path d="M0 0 C163.21 0, 816.07 0, 979.29 0 M0 0 C163.21 0, 816.07 0, 979.29 0" stroke="#1e1e1e" stroke-width="4" fill="none"></path></g></g><mask></mask><g transform="translate(994.2171959793745 590.0144744252406) rotate(0 190.845703125 65.14216309424609)"><text x="0" y="0" font-family="Cascadia, Segoe UI Emoji" font-size="108.57027182374352px" fill="#1e1e1e" text-anchor="start" style="white-space: pre;" direction="ltr" dominant-baseline="text-before-edge">header</text></g><g transform="translate(1020.6482009206002 1925.996573182094) rotate(0 190.845703125 65.14216309424614)"><text x="0" y="0" font-family="Cascadia, Segoe UI Emoji" font-size="108.57027182374352px" fill="#1e1e1e" text-anchor="start" style="white-space: pre;" direction="ltr" dominant-baseline="text-before-edge">header</text></g><g transform="translate(999.4292915322717 1763.4710212992325) rotate(0 190.845703125 65.14216309424614)"><text x="0" y="0" font-family="Cascadia, Segoe UI Emoji" font-size="108.57027182374352px" fill="#1e1e1e" text-anchor="start" style="white-space: pre;" direction="ltr" dominant-baseline="text-before-edge">footer</text></g><g transform="translate(998.4347667591746 1103.2436852621126) rotate(0 190.845703125 65.14216309424614)"><text x="0" y="0" font-family="Cascadia, Segoe UI Emoji" font-size="108.57027182374352px" fill="#1e1e1e" text-anchor="start" style="white-space: pre;" direction="ltr" dominant-baseline="text-before-edge">footer</text></g><g transform="translate(1018.1516541451952 1292.2002420862) rotate(0 190.845703125 65.14216309424614)"><text x="0" y="0" font-family="Cascadia, Segoe UI Emoji" font-size="108.57027182374352px" fill="#1e1e1e" text-anchor="start" style="white-space: pre;" direction="ltr" dominant-baseline="text-before-edge">header</text></g><g stroke-linecap="round"><g transform="translate(709.9608104961835 565.367967013403) rotate(0 489.6439472485033 0)"><path d="M0 0 C163.21 0, 816.07 0, 979.29 0 M0 0 C163.21 0, 816.07 0, 979.29 0" stroke="#1e1e1e" stroke-width="4" fill="none"></path></g></g><mask></mask><g transform="translate(23.14480395298051 912.0621712732495) rotate(0 192.67498779296875 46.246507411837456)"><text x="0" y="0" font-family="Cascadia, Segoe UI Emoji" font-size="77.07751235306242px" fill="#1e1e1e" text-anchor="start" style="white-space: pre;" direction="ltr" dominant-baseline="text-before-edge">在这里对齐</text></g><g stroke-linecap="round"><g transform="translate(415.81187474659373 911.3583305262191) rotate(0 137.21586491005974 -57.201422469489444)"><path d="M0 0 C45.74 -19.07, 228.69 -95.34, 274.43 -114.4 M0 0 C45.74 -19.07, 228.69 -95.34, 274.43 -114.4" stroke="#1e1e1e" stroke-width="4" fill="none"></path></g><g transform="translate(415.81187474659373 911.3583305262191) rotate(0 137.21586491005974 -57.201422469489444)"><path d="M252.36 -94.09 C261.05 -102.08, 269.74 -110.08, 274.43 -114.4 M252.36 -94.09 C260.67 -101.73, 268.97 -109.38, 274.43 -114.4" stroke="#1e1e1e" stroke-width="4" fill="none"></path></g><g transform="translate(415.81187474659373 911.3583305262191) rotate(0 137.21586491005974 -57.201422469489444)"><path d="M244.46 -113.03 C256.26 -113.57, 268.06 -114.11, 274.43 -114.4 M244.46 -113.03 C255.74 -113.54, 267.02 -114.06, 274.43 -114.4" stroke="#1e1e1e" stroke-width="4" fill="none"></path></g></g><mask></mask><g stroke-linecap="round"><g transform="translate(414.2027215541343 971.1317895701493) rotate(0 140.4850922474734 252.51799884239801)"><path d="M0 0 C46.83 84.17, 234.14 420.86, 280.97 505.04 M0 0 C46.83 84.17, 234.14 420.86, 280.97 505.04" stroke="#1e1e1e" stroke-width="4" fill="none"></path></g><g transform="translate(414.2027215541343 971.1317895701493) rotate(0 140.4850922474734 252.51799884239801)"><path d="M258.3 485.39 C264.45 490.72, 270.6 496.05, 280.97 505.04 M258.3 485.39 C263.07 489.53, 267.85 493.67, 280.97 505.04" stroke="#1e1e1e" stroke-width="4" fill="none"></path></g><g transform="translate(414.2027215541343 971.1317895701493) rotate(0 140.4850922474734 252.51799884239801)"><path d="M276.23 475.41 C277.52 483.45, 278.8 491.49, 280.97 505.04 M276.23 475.41 C277.23 481.65, 278.23 487.89, 280.97 505.04" stroke="#1e1e1e" stroke-width="4" fill="none"></path></g></g><mask></mask><g transform="translate(10 1059.9412157442741) rotate(0 223.23709106445312 62.917205929470015)"><text x="0" y="0" font-family="Cascadia, Segoe UI Emoji" font-size="52.43100494122498px" fill="#1e1e1e" text-anchor="start" style="white-space: pre;" direction="ltr" dominant-baseline="text-before-edge">malloc返回的指针</text><text x="0" y="62.91720592946997" font-family="Cascadia, Segoe UI Emoji" font-size="52.43100494122498px" fill="#1e1e1e" text-anchor="start" style="white-space: pre;" direction="ltr" dominant-baseline="text-before-edge">指向这里</text></g><g stroke-linecap="round"><g transform="translate(1768.1175287110705 571.940368989893) rotate(0 0 340.9433525304177)"><path d="M0 0 C0 113.65, 0 568.24, 0 681.89 M0 0 C0 113.65, 0 568.24, 0 681.89" stroke="#1e1e1e" stroke-width="4" fill="none"></path></g></g><mask></mask><g stroke-linecap="round"><g transform="translate(1731.9693178403759 567.0110675075255) rotate(0 43.54216309424601 0)"><path d="M0 0 C14.51 0, 72.57 0, 87.08 0 M0 0 C14.51 0, 72.57 0, 87.08 0" stroke="#1e1e1e" stroke-width="4" fill="none"></path></g></g><mask></mask><g stroke-linecap="round"><g transform="translate(1726.2184661109477 1262.042576521341) rotate(0 43.54216309424601 0)"><path d="M0 0 C14.51 0, 72.57 0, 87.08 0 M0 0 C14.51 0, 72.57 0, 87.08 0" stroke="#1e1e1e" stroke-width="4" fill="none"></path></g></g><mask></mask><g transform="translate(1807.5519405700102 849.6243524965947) rotate(0 273.51983642578125 79.34821087069491)"><text x="0" y="0" font-family="Cascadia, Segoe UI Emoji" font-size="66.12350905891243px" fill="#1e1e1e" text-anchor="start" style="white-space: pre;" direction="ltr" dominant-baseline="text-before-edge">一个block的size</text><text x="0" y="79.34821087069491" font-family="Cascadia, Segoe UI Emoji" font-size="66.12350905891243px" fill="#1e1e1e" text-anchor="start" style="white-space: pre;" direction="ltr" dominant-baseline="text-before-edge">包括head和tail</text></g><g transform="translate(1727.040016358007 1971.8619899822588) rotate(0 323.7500000000002 38.85255518828626)"><text x="0" y="0" font-family="Cascadia, Segoe UI Emoji" font-size="64.75425864714359px" fill="#1e1e1e" text-anchor="start" style="white-space: pre;" direction="ltr" dominant-baseline="text-before-edge">结尾块，标记为已分配</text></g><g transform="translate(1712.1929092530368 319.484749565682) rotate(0 323.75 38.852555188286146)"><text x="0" y="0" font-family="Cascadia, Segoe UI Emoji" font-size="64.75425864714359px" fill="#1e1e1e" text-anchor="start" style="white-space: pre;" direction="ltr" dominant-baseline="text-before-edge">起始块，标记为已分配</text></g><g stroke-linecap="round"><g transform="translate(700.1022075314486 395.3070658717247) rotate(0 489.6439472485033 0)"><path d="M0 0 C163.21 0, 816.07 0, 979.29 0 M0 0 C163.21 0, 816.07 0, 979.29 0" stroke="#1e1e1e" stroke-width="4" fill="none"></path></g></g><mask></mask><g transform="translate(986.001693508762 230.99701645947516) rotate(0 190.845703125 65.14216309424611)"><text x="0" y="0" font-family="Cascadia, Segoe UI Emoji" font-size="108.57027182374352px" fill="#1e1e1e" text-anchor="start" style="white-space: pre;" direction="ltr" dominant-baseline="text-before-edge">header</text></g><g stroke-linecap="round"><g transform="translate(706.6746095079388 212.92291102412764) rotate(0 489.6439472485033 0)"><path d="M0 0 C163.21 0, 816.07 0, 979.29 0 M0 0 C163.21 0, 816.07 0, 979.29 0" stroke="#1e1e1e" stroke-width="4" fill="none"></path></g></g><mask></mask><g stroke-linecap="round"><g transform="translate(702.5668582726321 392.84241513054087) rotate(0 489.6439472485033 0)"><path d="M0 0 C163.21 0, 816.07 0, 979.29 0 M0 0 C163.21 0, 816.07 0, 979.29 0" stroke="#1e1e1e" stroke-width="4" fill="none"></path></g></g><mask></mask><g stroke-linecap="round"><g transform="translate(697.6375567902642 570.2972684957701) rotate(0 489.6439472485033 0)"><path d="M0 0 C163.21 0, 816.07 0, 979.29 0 M0 0 C163.21 0, 816.07 0, 979.29 0" stroke="#1e1e1e" stroke-width="4" fill="none"></path></g></g><mask></mask><g transform="translate(982.8253120650106 414.78457822478697) rotate(0 190.845703125 65.14216309424609)"><text x="0" y="0" font-family="Cascadia, Segoe UI Emoji" font-size="108.57027182374352px" fill="#1e1e1e" text-anchor="start" style="white-space: pre;" direction="ltr" dominant-baseline="text-before-edge">footer</text></g><g transform="translate(890.6426621917876 76.30587643555316) rotate(0 291.375 38.852555188286146)"><text x="0" y="0" font-family="Cascadia, Segoe UI Emoji" font-size="64.75425864714359px" fill="#1e1e1e" text-anchor="start" style="white-space: pre;" direction="ltr" dominant-baseline="text-before-edge">用于对齐的填充部分</text></g><g transform="translate(1707.2636077706707 403.2828747659296) rotate(0 470.955078125 38.852555188286146)"><text x="0" y="0" font-family="Cascadia, Segoe UI Emoji" font-size="64.75425864714359px" fill="#1e1e1e" text-anchor="start" style="white-space: pre;" direction="ltr" dominant-baseline="text-before-edge">size = head大小 + tail大小</text></g><g transform="translate(1730.2670146883856 2059.528172841405) rotate(0 151.75781249999977 38.85255518828626)"><text x="0" y="0" font-family="Cascadia, Segoe UI Emoji" font-size="64.75425864714359px" fill="#1e1e1e" text-anchor="start" style="white-space: pre;" direction="ltr" dominant-baseline="text-before-edge">size = 0</text></g><g stroke-linecap="round" transform="translate(491.54860289726867 197.2096946625033) rotate(0 710.9532539077945 190.98588963672105)"><path d="M1421.91 190.99 C1421.91 193.69, 1421.69 196.39, 1421.27 199.09 C1420.84 201.79, 1420.2 204.49, 1419.35 207.18 C1418.49 209.87, 1417.43 212.56, 1416.15 215.24 C1414.87 217.92, 1413.38 220.6, 1411.68 223.26 C1409.98 225.93, 1408.07 228.58, 1405.95 231.22 C1403.83 233.86, 1401.5 236.5, 1398.97 239.11 C1396.43 241.72, 1393.69 244.33, 1390.74 246.91 C1387.8 249.49, 1384.65 252.06, 1381.3 254.61 C1377.94 257.16, 1374.39 259.69, 1370.64 262.2 C1366.89 264.7, 1362.94 267.19, 1358.79 269.65 C1354.65 272.12, 1350.31 274.56, 1345.78 276.97 C1341.25 279.38, 1336.53 281.77, 1331.63 284.13 C1326.72 286.49, 1321.62 288.82, 1316.35 291.12 C1311.08 293.42, 1305.62 295.69, 1299.98 297.93 C1294.35 300.17, 1288.54 302.38, 1282.56 304.55 C1276.58 306.72, 1270.42 308.86, 1264.1 310.97 C1257.78 313.07, 1251.29 315.14, 1244.65 317.17 C1238 319.19, 1231.19 321.19, 1224.23 323.14 C1217.27 325.09, 1210.15 327, 1202.89 328.87 C1195.63 330.74, 1188.21 332.57, 1180.66 334.35 C1173.11 336.14, 1165.41 337.88, 1157.59 339.58 C1149.76 341.28, 1141.8 342.93, 1133.71 344.54 C1125.62 346.14, 1117.4 347.71, 1109.07 349.22 C1100.74 350.73, 1092.28 352.2, 1083.71 353.62 C1075.15 355.03, 1066.46 356.4, 1057.68 357.72 C1048.9 359.04, 1040.01 360.31, 1031.03 361.52 C1022.05 362.74, 1012.96 363.9, 1003.8 365.02 C994.63 366.13, 985.37 367.19, 976.04 368.2 C966.7 369.21, 957.28 370.16, 947.8 371.06 C938.32 371.96, 928.75 372.81, 919.14 373.6 C909.52 374.39, 899.83 375.13, 890.1 375.81 C880.36 376.49, 870.57 377.12, 860.74 377.69 C850.9 378.25, 841.02 378.77, 831.1 379.22 C821.19 379.68, 811.23 380.08, 801.26 380.42 C791.28 380.77, 781.27 381.05, 771.25 381.28 C761.22 381.51, 751.18 381.69, 741.13 381.8 C731.08 381.91, 721.01 381.97, 710.95 381.97 C700.9 381.97, 690.83 381.91, 680.78 381.8 C670.73 381.69, 660.68 381.51, 650.66 381.28 C640.64 381.05, 630.63 380.77, 620.65 380.42 C610.67 380.08, 600.71 379.68, 590.8 379.22 C580.89 378.77, 571 378.25, 561.17 377.69 C551.34 377.12, 541.54 376.49, 531.81 375.81 C522.08 375.13, 512.39 374.39, 502.77 373.6 C493.15 372.81, 483.59 371.96, 474.11 371.06 C464.62 370.16, 455.2 369.21, 445.87 368.2 C436.54 367.19, 427.28 366.13, 418.11 365.02 C408.95 363.9, 399.86 362.74, 390.88 361.52 C381.9 360.31, 373.01 359.04, 364.22 357.72 C355.44 356.4, 346.76 355.03, 338.2 353.62 C329.63 352.2, 321.17 350.73, 312.84 349.22 C304.5 347.71, 296.28 346.14, 288.2 344.54 C280.11 342.93, 272.14 341.28, 264.32 339.58 C256.49 337.88, 248.79 336.14, 241.24 334.35 C233.69 332.57, 226.28 330.74, 219.02 328.87 C211.76 327, 204.64 325.09, 197.68 323.14 C190.72 321.19, 183.91 319.19, 177.26 317.17 C170.62 315.14, 164.12 313.07, 157.81 310.97 C151.49 308.86, 145.33 306.72, 139.35 304.55 C133.37 302.38, 127.55 300.17, 121.92 297.93 C116.29 295.69, 110.83 293.42, 105.56 291.12 C100.28 288.82, 95.19 286.49, 90.28 284.13 C85.38 281.77, 80.65 279.38, 76.12 276.97 C71.6 274.56, 67.26 272.12, 63.11 269.65 C58.97 267.19, 55.02 264.7, 51.27 262.2 C47.52 259.69, 43.96 257.16, 40.61 254.61 C37.26 252.06, 34.11 249.49, 31.16 246.91 C28.22 244.33, 25.47 241.72, 22.94 239.11 C20.41 236.5, 18.08 233.86, 15.96 231.22 C13.84 228.58, 11.93 225.93, 10.23 223.26 C8.53 220.6, 7.04 217.92, 5.76 215.24 C4.48 212.56, 3.41 209.87, 2.56 207.18 C1.71 204.49, 1.07 201.79, 0.64 199.09 C0.21 196.39, 0 193.69, 0 190.99 C0 188.28, 0.21 185.58, 0.64 182.88 C1.07 180.18, 1.71 177.48, 2.56 174.79 C3.41 172.1, 4.48 169.41, 5.76 166.73 C7.04 164.05, 8.53 161.37, 10.23 158.71 C11.93 156.05, 13.84 153.39, 15.96 150.75 C18.08 148.11, 20.41 145.48, 22.94 142.86 C25.47 140.25, 28.22 137.64, 31.16 135.06 C34.11 132.48, 37.26 129.91, 40.61 127.36 C43.96 124.81, 47.52 122.28, 51.27 119.78 C55.02 117.27, 58.97 114.78, 63.11 112.32 C67.26 109.86, 71.6 107.42, 76.12 105 C80.65 102.59, 85.38 100.2, 90.28 97.84 C95.19 95.48, 100.28 93.15, 105.56 90.85 C110.83 88.55, 116.29 86.28, 121.92 84.04 C127.55 81.8, 133.37 79.59, 139.35 77.42 C145.33 75.25, 151.49 73.11, 157.81 71 C164.12 68.9, 170.62 66.83, 177.26 64.81 C183.91 62.78, 190.72 60.79, 197.68 58.84 C204.64 56.88, 211.76 54.97, 219.02 53.1 C226.28 51.23, 233.69 49.4, 241.24 47.62 C248.79 45.83, 256.49 44.09, 264.32 42.39 C272.14 40.69, 280.11 39.04, 288.2 37.43 C296.28 35.83, 304.5 34.27, 312.84 32.75 C321.17 31.24, 329.63 29.77, 338.2 28.36 C346.76 26.94, 355.44 25.57, 364.22 24.25 C373.01 22.93, 381.9 21.67, 390.88 20.45 C399.86 19.23, 408.95 18.07, 418.11 16.95 C427.28 15.84, 436.54 14.78, 445.87 13.77 C455.2 12.76, 464.62 11.81, 474.11 10.91 C483.59 10.01, 493.15 9.16, 502.77 8.37 C512.39 7.58, 522.08 6.84, 531.81 6.16 C541.54 5.48, 551.34 4.86, 561.17 4.29 C571 3.72, 580.89 3.2, 590.8 2.75 C600.71 2.29, 610.67 1.89, 620.65 1.55 C630.63 1.2, 640.64 0.92, 650.66 0.69 C660.68 0.46, 670.73 0.29, 680.78 0.17 C690.83 0.06, 700.9 0, 710.95 0 C721.01 0, 731.08 0.06, 741.13 0.17 C751.18 0.29, 761.22 0.46, 771.25 0.69 C781.27 0.92, 791.28 1.2, 801.26 1.55 C811.23 1.89, 821.19 2.29, 831.1 2.75 C841.02 3.2, 850.9 3.72, 860.74 4.29 C870.57 4.86, 880.36 5.48, 890.1 6.16 C899.83 6.84, 909.52 7.58, 919.14 8.37 C928.75 9.16, 938.32 10.01, 947.8 10.91 C957.28 11.81, 966.7 12.76, 976.04 13.77 C985.37 14.78, 994.63 15.84, 1003.8 16.95 C1012.96 18.07, 1022.05 19.23, 1031.03 20.45 C1040.01 21.67, 1048.9 22.93, 1057.68 24.25 C1066.46 25.57, 1075.15 26.94, 1083.71 28.36 C1092.28 29.77, 1100.74 31.24, 1109.07 32.75 C1117.4 34.27, 1125.62 35.83, 1133.71 37.43 C1141.8 39.04, 1149.76 40.69, 1157.59 42.39 C1165.41 44.09, 1173.11 45.83, 1180.66 47.62 C1188.21 49.4, 1195.63 51.23, 1202.89 53.1 C1210.15 54.97, 1217.27 56.88, 1224.23 58.84 C1231.19 60.79, 1238 62.78, 1244.65 64.81 C1251.29 66.83, 1257.78 68.9, 1264.1 71 C1270.42 73.11, 1276.58 75.25, 1282.56 77.42 C1288.54 79.59, 1294.35 81.8, 1299.98 84.04 C1305.62 86.28, 1311.08 88.55, 1316.35 90.85 C1321.62 93.15, 1326.72 95.48, 1331.63 97.84 C1336.53 100.2, 1341.25 102.59, 1345.78 105 C1350.31 107.42, 1354.65 109.86, 1358.79 112.32 C1362.94 114.78, 1366.89 117.27, 1370.64 119.78 C1374.39 122.28, 1377.94 124.81, 1381.3 127.36 C1384.65 129.91, 1387.8 132.48, 1390.74 135.06 C1393.69 137.64, 1396.43 140.25, 1398.97 142.86 C1401.5 145.48, 1403.83 148.11, 1405.95 150.75 C1408.07 153.39, 1409.98 156.05, 1411.68 158.71 C1413.38 161.37, 1414.87 164.05, 1416.15 166.73 C1417.43 169.41, 1418.49 172.1, 1419.35 174.79 C1420.2 177.48, 1420.84 180.18, 1421.27 182.88 C1421.69 185.58, 1421.91 188.28, 1421.91 190.99" stroke="#1971c2" stroke-width="4" fill="none"></path></g><g stroke-linecap="round" transform="translate(568.8261304959424 1896.211337153333) rotate(0 684.4581015882493 117.02025607799112)"><path d="M1368.92 117.02 C1368.92 118.72, 1368.7 120.42, 1368.26 122.12 C1367.83 123.82, 1367.18 125.52, 1366.31 127.22 C1365.44 128.91, 1364.36 130.61, 1363.06 132.29 C1361.76 133.98, 1360.25 135.67, 1358.52 137.34 C1356.79 139.02, 1354.85 140.69, 1352.69 142.35 C1350.54 144.01, 1348.17 145.66, 1345.59 147.31 C1343.02 148.95, 1340.23 150.59, 1337.24 152.21 C1334.24 153.83, 1331.04 155.44, 1327.64 157.04 C1324.23 158.64, 1320.62 160.23, 1316.81 161.8 C1313.01 163.37, 1308.99 164.93, 1304.79 166.48 C1300.58 168.02, 1296.18 169.54, 1291.58 171.05 C1286.98 172.56, 1282.19 174.06, 1277.22 175.53 C1272.24 177, 1267.07 178.46, 1261.72 179.9 C1256.38 181.33, 1250.84 182.75, 1245.13 184.14 C1239.43 185.53, 1233.53 186.91, 1227.48 188.26 C1221.42 189.61, 1215.18 190.94, 1208.78 192.24 C1202.39 193.54, 1195.82 194.82, 1189.09 196.08 C1182.37 197.33, 1175.48 198.56, 1168.44 199.77 C1161.41 200.97, 1154.21 202.15, 1146.87 203.3 C1139.53 204.45, 1132.04 205.57, 1124.42 206.66 C1116.8 207.76, 1109.03 208.82, 1101.13 209.86 C1093.23 210.89, 1085.2 211.9, 1077.05 212.88 C1068.9 213.85, 1060.61 214.8, 1052.22 215.71 C1043.82 216.63, 1035.31 217.51, 1026.69 218.36 C1018.07 219.21, 1009.33 220.03, 1000.51 220.82 C991.68 221.6, 982.74 222.36, 973.72 223.08 C964.7 223.8, 955.58 224.48, 946.39 225.13 C937.19 225.78, 927.91 226.4, 918.56 226.98 C909.2 227.57, 899.77 228.11, 890.28 228.62 C880.79 229.14, 871.22 229.61, 861.61 230.05 C852 230.49, 842.32 230.9, 832.6 231.27 C822.89 231.63, 813.11 231.97, 803.31 232.26 C793.51 232.56, 783.66 232.82, 773.8 233.04 C763.93 233.26, 754.03 233.45, 744.11 233.6 C734.2 233.74, 724.26 233.85, 714.31 233.93 C704.37 234, 694.41 234.04, 684.46 234.04 C674.51 234.04, 664.54 234, 654.6 233.93 C644.66 233.85, 634.72 233.74, 624.8 233.6 C614.89 233.45, 604.99 233.26, 595.12 233.04 C585.25 232.82, 575.4 232.56, 565.6 232.26 C555.8 231.97, 546.03 231.63, 536.31 231.27 C526.6 230.9, 516.92 230.49, 507.31 230.05 C497.69 229.61, 488.13 229.14, 478.64 228.62 C469.15 228.11, 459.71 227.57, 450.36 226.98 C441.01 226.4, 431.72 225.78, 422.53 225.13 C413.33 224.48, 404.21 223.8, 395.19 223.08 C386.17 222.36, 377.24 221.6, 368.41 220.82 C359.58 220.03, 350.85 219.21, 342.23 218.36 C333.61 217.51, 325.09 216.63, 316.7 215.71 C308.31 214.8, 300.02 213.85, 291.87 212.88 C283.72 211.9, 275.68 210.89, 267.79 209.86 C259.89 208.82, 252.12 207.76, 244.5 206.66 C236.87 205.57, 229.38 204.45, 222.04 203.3 C214.71 202.15, 207.51 200.97, 200.47 199.77 C193.44 198.56, 186.55 197.33, 179.82 196.08 C173.1 194.82, 166.53 193.54, 160.13 192.24 C153.74 190.94, 147.5 189.61, 141.44 188.26 C135.38 186.91, 129.49 185.53, 123.78 184.14 C118.07 182.75, 112.54 181.33, 107.19 179.9 C101.84 178.46, 96.68 177, 91.7 175.53 C86.72 174.06, 81.93 172.56, 77.34 171.05 C72.74 169.54, 68.33 168.02, 64.13 166.48 C59.92 164.93, 55.91 163.37, 52.1 161.8 C48.29 160.23, 44.68 158.64, 41.28 157.04 C37.87 155.44, 34.67 153.83, 31.68 152.21 C28.69 150.59, 25.9 148.95, 23.32 147.31 C20.75 145.66, 18.38 144.01, 16.22 142.35 C14.07 140.69, 12.13 139.02, 10.4 137.34 C8.67 135.67, 7.15 133.98, 5.86 132.29 C4.56 130.61, 3.47 128.91, 2.6 127.22 C1.74 125.52, 1.09 123.82, 0.65 122.12 C0.22 120.42, 0 118.72, 0 117.02 C0 115.32, 0.22 113.62, 0.65 111.92 C1.09 110.22, 1.74 108.52, 2.6 106.82 C3.47 105.13, 4.56 103.43, 5.86 101.75 C7.15 100.06, 8.67 98.38, 10.4 96.7 C12.13 95.02, 14.07 93.35, 16.22 91.69 C18.38 90.03, 20.75 88.38, 23.32 86.73 C25.9 85.09, 28.69 83.45, 31.68 81.83 C34.67 80.21, 37.87 78.6, 41.28 77 C44.68 75.4, 48.29 73.81, 52.1 72.24 C55.91 70.67, 59.92 69.11, 64.13 67.57 C68.33 66.02, 72.74 64.5, 77.34 62.99 C81.93 61.48, 86.72 59.98, 91.7 58.51 C96.68 57.04, 101.84 55.58, 107.19 54.15 C112.54 52.71, 118.07 51.29, 123.78 49.9 C129.49 48.51, 135.38 47.13, 141.44 45.78 C147.5 44.43, 153.74 43.1, 160.13 41.8 C166.53 40.5, 173.1 39.22, 179.82 37.96 C186.55 36.71, 193.44 35.48, 200.47 34.27 C207.51 33.07, 214.71 31.89, 222.04 30.74 C229.38 29.59, 236.87 28.47, 244.5 27.38 C252.12 26.28, 259.89 25.22, 267.79 24.18 C275.68 23.15, 283.72 22.14, 291.87 21.16 C300.02 20.19, 308.31 19.24, 316.7 18.33 C325.09 17.41, 333.61 16.53, 342.23 15.68 C350.85 14.83, 359.58 14.01, 368.41 13.22 C377.24 12.44, 386.17 11.68, 395.19 10.96 C404.21 10.24, 413.33 9.56, 422.53 8.91 C431.72 8.26, 441.01 7.64, 450.36 7.06 C459.71 6.48, 469.15 5.93, 478.64 5.42 C488.13 4.9, 497.69 4.43, 507.31 3.99 C516.92 3.55, 526.6 3.14, 536.31 2.77 C546.03 2.41, 555.8 2.07, 565.6 1.78 C575.4 1.48, 585.25 1.22, 595.12 1 C604.99 0.78, 614.89 0.59, 624.8 0.45 C634.72 0.3, 644.66 0.19, 654.6 0.11 C664.54 0.04, 674.51 0, 684.46 0 C694.41 0, 704.37 0.04, 714.31 0.11 C724.26 0.19, 734.2 0.3, 744.11 0.45 C754.03 0.59, 763.93 0.78, 773.8 1 C783.66 1.22, 793.51 1.48, 803.31 1.78 C813.11 2.07, 822.89 2.41, 832.6 2.77 C842.32 3.14, 852 3.55, 861.61 3.99 C871.22 4.43, 880.79 4.9, 890.28 5.42 C899.77 5.93, 909.2 6.48, 918.56 7.06 C927.91 7.64, 937.19 8.26, 946.39 8.91 C955.58 9.56, 964.7 10.24, 973.72 10.96 C982.74 11.68, 991.68 12.44, 1000.51 13.22 C1009.33 14.01, 1018.07 14.83, 1026.69 15.68 C1035.31 16.53, 1043.82 17.41, 1052.22 18.33 C1060.61 19.24, 1068.9 20.19, 1077.05 21.16 C1085.2 22.14, 1093.23 23.15, 1101.13 24.18 C1109.03 25.22, 1116.8 26.28, 1124.42 27.38 C1132.04 28.47, 1139.53 29.59, 1146.87 30.74 C1154.21 31.89, 1161.41 33.07, 1168.44 34.27 C1175.48 35.48, 1182.37 36.71, 1189.09 37.96 C1195.82 39.22, 1202.39 40.5, 1208.78 41.8 C1215.18 43.1, 1221.42 44.43, 1227.48 45.78 C1233.53 47.13, 1239.43 48.51, 1245.13 49.9 C1250.84 51.29, 1256.38 52.71, 1261.72 54.15 C1267.07 55.58, 1272.24 57.04, 1277.22 58.51 C1282.19 59.98, 1286.98 61.48, 1291.58 62.99 C1296.18 64.5, 1300.58 66.02, 1304.79 67.57 C1308.99 69.11, 1313.01 70.67, 1316.81 72.24 C1320.62 73.81, 1324.23 75.4, 1327.64 77 C1331.04 78.6, 1334.24 80.21, 1337.24 81.83 C1340.23 83.45, 1343.02 85.09, 1345.59 86.73 C1348.17 88.38, 1350.54 90.03, 1352.69 91.69 C1354.85 93.35, 1356.79 95.02, 1358.52 96.7 C1360.25 98.38, 1361.76 100.06, 1363.06 101.75 C1364.36 103.43, 1365.44 105.13, 1366.31 106.82 C1367.18 108.52, 1367.83 110.22, 1368.26 111.92 C1368.7 113.62, 1368.81 116.17, 1368.92 117.02 C1369.02 117.87, 1369.02 116.17, 1368.92 117.02" stroke="#1971c2" stroke-width="4" fill="none"></path></g></svg>